<svg xmlns="http://www.w3.org/2000/svg" viewBox="0 0 135.72 72"><defs><style>.cls-1{fill:#010101;}.cls-2{fill:#fdc113;}.cls-3{fill:#fec00f;}</style></defs><title>Asset 1</title><g id="Layer_2" data-name="Layer 2"><g id="Layer_1-2" data-name="Layer 1"><path class="cls-1" d="M9.94,59l-.77-5.51H4.6L3.91,59H0L4.3,29.09H9.16L13.85,59ZM6.71,34.3,5,49.86H8.64Z"/><polygon class="cls-1" points="15.87 59.02 15.87 29.09 25.89 29.09 25.89 32.82 19.91 32.82 19.91 41.59 25.25 41.59 25.25 45.33 19.96 45.33 19.96 55.25 25.89 55.25 25.89 59.02 15.87 59.02"/><path class="cls-1" d="M36.82,59a25.69,25.69,0,0,1-.6-6.28V50.63a24.91,24.91,0,0,0-.17-3.1,2.92,2.92,0,0,0-.73-1.91A2,2,0,0,0,34,45.24H32.39V59h-4V29.09h6.54c.52,0,1,0,1.51,0,1.08.09,3.1.21,3.7,2.93a23.58,23.58,0,0,1,.26,4.28c0,1.14,0,2.33-.09,3.52a7.27,7.27,0,0,1-.47,2.38c-.73,1.57-2.45,1.53-3.1,1.61a3.21,3.21,0,0,1,2.75,1.27c.69,1.06.73,2.29.73,4.75v3.26c0,3.39.09,4,.78,5.89Zm-.47-24.89a1.54,1.54,0,0,0-.43-1.19c-.26-.25-.69-.25-1.46-.25h-2v9.24h1.89c1,0,1.63-.26,1.89-1.32A28.35,28.35,0,0,0,36.43,36c0-.64,0-1.27-.09-1.91"/><path class="cls-1" d="M55.78,55.84c-1.29,3.52-5.25,3.48-6.15,3.48a7.7,7.7,0,0,1-2.54-.38,5.45,5.45,0,0,1-3.27-3.65,9.72,9.72,0,0,1-.3-3.14V37.23c0-2.67,0-5.26,2.36-7a6.6,6.6,0,0,1,4.17-1.32,6.29,6.29,0,0,1,4,1.19,5,5,0,0,1,1.38,1.61c.86,1.49.9,3.05.9,6.4V52.32a10,10,0,0,1-.52,3.52m-3.48-19c0-1.82,0-3-.47-3.69A2.06,2.06,0,0,0,50,32.31a2.77,2.77,0,0,0-1.46.43c-1.07.68-1,1.91-1,4.15v16c0,1.61.26,3.14,2.32,3.14,2.58,0,2.45-2.29,2.45-4.07Z"/><polygon class="cls-1" points="67.36 59.02 67.36 45.11 63.66 45.11 63.66 59.02 59.66 59.02 59.66 29.09 63.66 29.09 63.66 41.26 67.36 41.26 67.36 29.09 71.36 29.09 71.36 59.02 67.36 59.02"/><rect class="cls-1" x="74.8" y="29.09" width="3.96" height="29.93"/><polygon class="cls-1" points="90.02 59.02 85.29 59.02 80.65 29.09 84.65 29.09 87.74 53.08 90.71 29.09 94.67 29.09 90.02 59.02"/><polygon class="cls-1" points="96.52 59.02 96.52 29.09 106.54 29.09 106.54 32.82 100.56 32.82 100.56 41.59 105.89 41.59 105.89 45.33 100.61 45.33 100.61 55.25 106.54 55.25 106.54 59.02 96.52 59.02"/><polygon class="cls-2" points="60.03 71.87 60.03 64.95 60.97 64.95 63.78 71.02 63.8 71 63.8 64.95 64.41 64.95 64.41 71.87 63.48 71.87 60.67 65.73 60.65 65.75 60.65 71.87 60.03 71.87"/><polygon class="cls-2" points="71.87 64.95 71.87 65.47 69.35 65.47 69.35 68.05 71.76 68.05 71.76 68.57 69.35 68.57 69.35 71.35 71.94 71.35 71.94 71.87 68.74 71.87 68.74 64.95 71.87 64.95"/><polygon class="cls-2" points="76.97 65.47 75.28 65.47 75.28 64.95 79.27 64.95 79.27 65.47 77.58 65.47 77.58 71.87 76.97 71.87 76.97 65.47"/><polygon class="cls-2" points="85.85 64.95 86.67 64.95 88.06 71.01 88.08 71.01 89.56 64.95 90.16 64.95 88.44 71.87 87.64 71.87 86.25 65.72 86.23 65.72 84.81 71.87 84.04 71.87 82.37 64.95 83.02 64.95 84.42 71.06 84.44 71.06 85.85 64.95"/><path class="cls-2" d="M95.79,64.82c2.07,0,2.09,1.72,2.09,3.59s0,3.59-2.09,3.59-2.09-1.72-2.09-3.59,0-3.59,2.09-3.59m0,6.67c1.46,0,1.47-1.23,1.47-3.07s0-3.07-1.47-3.07-1.48,1.24-1.48,3.07,0,3.07,1.48,3.07"/><path class="cls-2" d="M102.59,68.51v3.35H102V64.95h1.91c1.33,0,1.67.44,1.67,1.66,0,.86-.14,1.44-1.07,1.65v0c1,.2,1,.32,1,2.79,0,.27,0,.54.07.81H105a17.2,17.2,0,0,1-.1-1.72c0-.3.19-1.63-1.14-1.63Zm0-.52h1c.92,0,1.35-.24,1.35-1.4,0-.95-.37-1.13-1.09-1.13h-1.25Z"/><polygon class="cls-2" points="109.74 71.87 109.74 64.95 110.35 64.95 110.35 68.12 110.37 68.12 112.82 64.95 113.56 64.95 110.97 68.18 113.64 71.87 112.87 71.87 110.37 68.32 110.35 68.32 110.35 71.87 109.74 71.87"/><path class="cls-2" d="M120.27,66.7c0-.85-.23-1.37-1.17-1.37-.75,0-1.22.26-1.22,1.07,0,1,.52,1.05,1.3,1.62s1.72.79,1.72,2.14A1.63,1.63,0,0,1,119.08,72c-1.35,0-2-.73-1.9-2.08h.63c0,.76.06,1.56,1.29,1.56a1.08,1.08,0,0,0,1.2-1.23c0-.94-.62-1.21-1.62-1.82-1.34-.82-1.4-1.24-1.41-1.92,0-1.2.75-1.7,1.88-1.7,1.44,0,1.74.89,1.74,1.89Z"/><polygon class="cls-3" points="110.43 13.62 106.54 6.81 110.43 0 118.37 0 122.26 6.81 118.37 13.62 110.43 13.62"/><polygon class="cls-3" points="123.89 21.23 119.99 14.43 123.89 7.62 131.66 7.62 135.72 14.43 131.66 21.23 123.89 21.23"/><polygon class="cls-3" points="110.43 29.18 106.54 22.37 110.43 15.56 118.37 15.56 122.26 22.37 118.37 29.18 110.43 29.18"/></g></g></svg>